<svg id="visual" viewBox="0 0 1920 1080" width="1920" height="1080" xmlns="http://www.w3.org/2000/svg" xmlns:xlink="http://www.w3.org/1999/xlink" version="1.1"><rect x="0" y="0" width="1920" height="1080" fill="#07081c"></rect><path d="M0 785L20 801C40 817 80 849 120 860C160 871 200 861 240 857.2C280 853.3 320 855.7 360 857.3C400 859 440 860 480 863.5C520 867 560 873 600 875.5C640 878 680 877 720 861.7C760 846.3 800 816.7 840 804.8C880 793 920 799 960 815.7C1000 832.3 1040 859.7 1080 862C1120 864.3 1160 841.7 1200 827C1240 812.3 1280 805.7 1320 801.8C1360 798 1400 797 1440 802.5C1480 808 1520 820 1560 833.8C1600 847.7 1640 863.3 1680 868.7C1720 874 1760 869 1800 869.2C1840 869.3 1880 874.7 1900 877.3L1920 880L1920 1081L1900 1081C1880 1081 1840 1081 1800 1081C1760 1081 1720 1081 1680 1081C1640 1081 1600 1081 1560 1081C1520 1081 1480 1081 1440 1081C1400 1081 1360 1081 1320 1081C1280 1081 1240 1081 1200 1081C1160 1081 1120 1081 1080 1081C1040 1081 1000 1081 960 1081C920 1081 880 1081 840 1081C800 1081 760 1081 720 1081C680 1081 640 1081 600 1081C560 1081 520 1081 480 1081C440 1081 400 1081 360 1081C320 1081 280 1081 240 1081C200 1081 160 1081 120 1081C80 1081 40 1081 20 1081L0 1081Z" fill="#176fd8"></path><path d="M0 839L20 847.2C40 855.3 80 871.7 120 874.2C160 876.7 200 865.3 240 867.5C280 869.7 320 885.3 360 882.2C400 879 440 857 480 845.3C520 833.7 560 832.3 600 838.5C640 844.7 680 858.3 720 874.3C760 890.3 800 908.7 840 908.7C880 908.7 920 890.3 960 888.5C1000 886.7 1040 901.3 1080 899C1120 896.7 1160 877.3 1200 875.5C1240 873.7 1280 889.3 1320 897.7C1360 906 1400 907 1440 906.3C1480 905.7 1520 903.3 1560 893.8C1600 884.3 1640 867.7 1680 869C1720 870.3 1760 889.7 1800 892.3C1840 895 1880 881 1900 874L1920 867L1920 1081L1900 1081C1880 1081 1840 1081 1800 1081C1760 1081 1720 1081 1680 1081C1640 1081 1600 1081 1560 1081C1520 1081 1480 1081 1440 1081C1400 1081 1360 1081 1320 1081C1280 1081 1240 1081 1200 1081C1160 1081 1120 1081 1080 1081C1040 1081 1000 1081 960 1081C920 1081 880 1081 840 1081C800 1081 760 1081 720 1081C680 1081 640 1081 600 1081C560 1081 520 1081 480 1081C440 1081 400 1081 360 1081C320 1081 280 1081 240 1081C200 1081 160 1081 120 1081C80 1081 40 1081 20 1081L0 1081Z" fill="#ac67cb"></path><path d="M0 920L20 924C40 928 80 936 120 941.8C160 947.7 200 951.3 240 947.8C280 944.3 320 933.7 360 920C400 906.3 440 889.7 480 887.7C520 885.7 560 898.3 600 912.8C640 927.3 680 943.7 720 943.2C760 942.7 800 925.3 840 916.3C880 907.3 920 906.7 960 903.2C1000 899.7 1040 893.3 1080 890C1120 886.7 1160 886.3 1200 885C1240 883.7 1280 881.3 1320 882.2C1360 883 1400 887 1440 892.2C1480 897.3 1520 903.7 1560 909.7C1600 915.7 1640 921.3 1680 917C1720 912.7 1760 898.3 1800 901.7C1840 905 1880 926 1900 936.5L1920 947L1920 1081L1900 1081C1880 1081 1840 1081 1800 1081C1760 1081 1720 1081 1680 1081C1640 1081 1600 1081 1560 1081C1520 1081 1480 1081 1440 1081C1400 1081 1360 1081 1320 1081C1280 1081 1240 1081 1200 1081C1160 1081 1120 1081 1080 1081C1040 1081 1000 1081 960 1081C920 1081 880 1081 840 1081C800 1081 760 1081 720 1081C680 1081 640 1081 600 1081C560 1081 520 1081 480 1081C440 1081 400 1081 360 1081C320 1081 280 1081 240 1081C200 1081 160 1081 120 1081C80 1081 40 1081 20 1081L0 1081Z" fill="#ed67a8"></path><path d="M0 925L20 931.5C40 938 80 951 120 958C160 965 200 966 240 967.8C280 969.7 320 972.3 360 975.7C400 979 440 983 480 980C520 977 560 967 600 968.3C640 969.7 680 982.3 720 982.7C760 983 800 971 840 963.5C880 956 920 953 960 955.5C1000 958 1040 966 1080 967.3C1120 968.7 1160 963.3 1200 958C1240 952.7 1280 947.3 1320 953.5C1360 959.7 1400 977.3 1440 978.8C1480 980.3 1520 965.7 1560 957.2C1600 948.7 1640 946.3 1680 942.5C1720 938.7 1760 933.3 1800 930.2C1840 927 1880 926 1900 925.5L1920 925L1920 1081L1900 1081C1880 1081 1840 1081 1800 1081C1760 1081 1720 1081 1680 1081C1640 1081 1600 1081 1560 1081C1520 1081 1480 1081 1440 1081C1400 1081 1360 1081 1320 1081C1280 1081 1240 1081 1200 1081C1160 1081 1120 1081 1080 1081C1040 1081 1000 1081 960 1081C920 1081 880 1081 840 1081C800 1081 760 1081 720 1081C680 1081 640 1081 600 1081C560 1081 520 1081 480 1081C440 1081 400 1081 360 1081C320 1081 280 1081 240 1081C200 1081 160 1081 120 1081C80 1081 40 1081 20 1081L0 1081Z" fill="#ff8080"></path><path d="M0 985L20 980.5C40 976 80 967 120 965.3C160 963.7 200 969.3 240 971C280 972.7 320 970.3 360 973.8C400 977.3 440 986.7 480 988.3C520 990 560 984 600 981C640 978 680 978 720 975.3C760 972.7 800 967.3 840 975C880 982.7 920 1003.3 960 1012.7C1000 1022 1040 1020 1080 1013.2C1120 1006.3 1160 994.7 1200 990.2C1240 985.7 1280 988.3 1320 996.2C1360 1004 1400 1017 1440 1021C1480 1025 1520 1020 1560 1017.8C1600 1015.7 1640 1016.3 1680 1011.5C1720 1006.7 1760 996.3 1800 990C1840 983.7 1880 981.3 1900 980.2L1920 979L1920 1081L1900 1081C1880 1081 1840 1081 1800 1081C1760 1081 1720 1081 1680 1081C1640 1081 1600 1081 1560 1081C1520 1081 1480 1081 1440 1081C1400 1081 1360 1081 1320 1081C1280 1081 1240 1081 1200 1081C1160 1081 1120 1081 1080 1081C1040 1081 1000 1081 960 1081C920 1081 880 1081 840 1081C800 1081 760 1081 720 1081C680 1081 640 1081 600 1081C560 1081 520 1081 480 1081C440 1081 400 1081 360 1081C320 1081 280 1081 240 1081C200 1081 160 1081 120 1081C80 1081 40 1081 20 1081L0 1081Z" fill="#ffb05b"></path><path d="M0 1032L20 1028.7C40 1025.3 80 1018.7 120 1013.5C160 1008.3 200 1004.7 240 1011.5C280 1018.3 320 1035.7 360 1042.8C400 1050 440 1047 480 1042.7C520 1038.3 560 1032.7 600 1027.2C640 1021.7 680 1016.3 720 1015.8C760 1015.3 800 1019.7 840 1027.3C880 1035 920 1046 960 1044.5C1000 1043 1040 1029 1080 1029.7C1120 1030.3 1160 1045.7 1200 1049.8C1240 1054 1280 1047 1320 1040.8C1360 1034.7 1400 1029.3 1440 1031C1480 1032.7 1520 1041.3 1560 1044.5C1600 1047.7 1640 1045.3 1680 1037.5C1720 1029.7 1760 1016.3 1800 1019.2C1840 1022 1880 1041 1900 1050.5L1920 1060L1920 1081L1900 1081C1880 1081 1840 1081 1800 1081C1760 1081 1720 1081 1680 1081C1640 1081 1600 1081 1560 1081C1520 1081 1480 1081 1440 1081C1400 1081 1360 1081 1320 1081C1280 1081 1240 1081 1200 1081C1160 1081 1120 1081 1080 1081C1040 1081 1000 1081 960 1081C920 1081 880 1081 840 1081C800 1081 760 1081 720 1081C680 1081 640 1081 600 1081C560 1081 520 1081 480 1081C440 1081 400 1081 360 1081C320 1081 280 1081 240 1081C200 1081 160 1081 120 1081C80 1081 40 1081 20 1081L0 1081Z" fill="#f6e758"></path></svg>