<svg id="visual" viewBox="0 0 1920 1080" width="1920" height="1080" xmlns="http://www.w3.org/2000/svg" xmlns:xlink="http://www.w3.org/1999/xlink" version="1.1"><rect x="0" y="0" width="1920" height="1080" fill="#050a14"></rect><defs><linearGradient id="grad1_0" x1="43.8%" y1="0%" x2="100%" y2="100%"><stop offset="14.444444444444446%" stop-color="#050a14" stop-opacity="1"></stop><stop offset="85.55555555555554%" stop-color="#050a14" stop-opacity="1"></stop></linearGradient></defs><defs><linearGradient id="grad2_0" x1="0%" y1="0%" x2="56.3%" y2="100%"><stop offset="14.444444444444446%" stop-color="#050a14" stop-opacity="1"></stop><stop offset="85.55555555555554%" stop-color="#050a14" stop-opacity="1"></stop></linearGradient></defs><g transform="translate(1920, 0)"><path d="M0 540C-28.7 523.3 -57.3 506.7 -88.9 504.2C-120.5 501.8 -155 513.5 -184.7 507.4C-214.3 501.4 -239.1 477.5 -264 457.3C-288.9 437 -313.8 420.3 -335.5 399.9C-357.2 379.4 -375.6 355.3 -395.3 331.7C-414.9 308.1 -435.8 285.1 -446 257.5C-456.2 229.9 -455.9 197.7 -466.1 169.6C-476.3 141.6 -497 117.7 -511.1 90.1C-525.2 62.5 -532.6 31.3 -540 0L0 0Z" fill="#111d48"></path></g><g transform="translate(0, 1080)"><path d="M0 -540C31.2 -535 62.5 -530 91.9 -521C121.2 -511.9 148.8 -498.8 178.5 -490.5C208.3 -482.2 240.3 -478.8 269.5 -466.8C298.7 -454.8 325.2 -434.2 342 -407.5C358.8 -380.9 365.9 -348.1 388.4 -325.9C410.9 -303.6 448.8 -291.9 461.6 -266.5C474.4 -241.1 462.1 -202.1 472.7 -172C483.3 -142 516.8 -120.9 531.8 -93.8C546.8 -66.6 543.4 -33.3 540 0L0 0Z" fill="#111d48"></path></g></svg>